<svg width="196" height="63" viewBox="0 0 196 63" fill="none" xmlns="http://www.w3.org/2000/svg">
<path d="M24.7497 24.7895C20.9594 25.4212 17.6204 27.2562 14.6423 30.3245C12.2659 32.7912 10.7016 35.3782 9.72396 38.4164C9.07721 40.462 8.85159 41.9661 8.85159 44.0267C8.86663 53.0512 14.6273 60.2557 23.3359 62.1057C24.8701 62.4216 28.9311 62.4667 31.1571 62.1659C34.5563 61.7147 37.8202 60.8423 40.0763 59.7894L41.2345 59.248L41.2044 54.5703L41.1593 49.8926L40.1515 49.8475C39.58 49.8174 39.1288 49.8174 39.1137 49.8475C39.1137 49.8775 39.0235 50.795 38.9031 51.893C38.6625 54.3146 38.3015 55.187 37.023 56.4353C33.9397 59.4736 27.6376 60.1504 23.1554 57.9394C19.1696 55.954 16.4021 52.0434 15.274 46.734C14.883 44.884 14.913 41.0336 15.3492 39.003C16.5074 33.5432 19.6359 29.9334 24.6144 28.2789C25.5619 27.9631 25.938 27.933 28.4498 27.933C32.4807 27.948 33.699 28.3391 35.7596 30.2944C37.1133 31.5879 37.3991 32.0993 37.7901 33.9192C37.9405 34.6863 38.121 35.4534 38.1511 35.6489C38.2263 35.9798 38.3015 35.9949 39.3243 35.9498L40.4072 35.9046L40.3471 31.8587C40.3019 27.933 40.2869 27.7976 39.971 27.5269C39.3393 27.0005 36.6169 25.7521 35.2933 25.3761C32.6762 24.624 27.427 24.3383 24.7497 24.7895Z" fill="#D6B766"/>
<path d="M170.393 26.5742C169.972 27.6722 169.28 29.4921 168.859 30.6052C166.468 36.8772 159.474 54.0387 158.601 55.7985C157.593 57.829 156.977 58.2502 154.721 58.3855L153.217 58.4758V59.5136V60.5364H159.534H165.851V59.4986V58.4758L165.294 58.3705C164.978 58.3254 164.467 58.2803 164.151 58.2803C163.008 58.2803 162.241 57.7237 162.241 56.8965C162.241 56.4302 163.174 53.7379 164.257 51.0907L165.144 48.9549L171.1 48.985L177.056 49.0302L177.778 50.8351C178.771 53.3318 179.989 56.8815 179.989 57.2876C179.989 57.9494 179.523 58.1599 177.929 58.2351C175.642 58.3254 175.763 58.2652 175.808 59.4534L175.853 60.4612L182.892 60.5063L189.916 60.5364V59.4835V58.4307H189.104C188.668 58.4307 187.931 58.3705 187.495 58.2803C186.336 58.0697 185.93 57.5433 184.908 54.9412C184.441 53.753 182.892 49.8123 181.478 46.1724C180.049 42.5325 177.553 36.2003 175.913 32.1092L172.95 24.664L172.063 24.6189L171.16 24.5738L170.393 26.5742ZM171.942 35.8694C172.424 37.1479 173.507 40.0207 174.349 42.2618L175.883 46.3228L171.07 46.3679C168.423 46.383 166.227 46.383 166.197 46.3529C166.167 46.3228 167.205 43.3748 168.513 39.7951C169.807 36.2304 170.92 33.3576 170.965 33.4178C171.025 33.493 171.461 34.591 171.942 35.8694Z" fill="white"/>
<path d="M43.7915 26.6546V27.7074H44.8894C45.476 27.7225 46.4387 27.7826 47.0252 27.8578C47.8826 27.9631 48.1383 28.0684 48.409 28.3843L48.7549 28.7753V43.1393C48.7549 58.9773 48.8151 58.0297 47.8224 58.3756C47.5667 58.4659 46.5439 58.5411 45.5663 58.5411H43.7764L43.8216 59.6391L43.8667 60.722L51.2818 60.7671L58.6819 60.7972V59.6691V58.5411H57.1176C56.2753 58.5411 55.3579 58.4659 55.1022 58.3756C54.1696 58.0598 54.1696 57.9996 54.1696 49.9829V42.7482H63.7958H73.4219V50.1032C73.4219 57.2777 73.4219 57.4581 73.1211 57.8342C72.6999 58.3756 71.978 58.5411 70.158 58.5411H68.6088V59.6691V60.7972H76.2044H83.8V59.6691V58.5411H81.9951C79.9346 58.5411 79.2276 58.3456 78.987 57.7138C78.8967 57.4581 78.8366 52.1337 78.8366 43.049V28.7753L79.1825 28.3843C79.4683 28.0383 79.7089 27.9631 80.6415 27.8578C81.2581 27.7826 82.2208 27.7225 82.7923 27.7074H83.8V26.6546V25.6017H76.2044H68.6088V26.6395V27.6623L70.3686 27.7676C72.2337 27.8729 73.0007 28.0985 73.2564 28.5798C73.3617 28.7904 73.4219 30.7607 73.4219 34.4607V40.0409L63.8409 40.0108L54.2448 39.9657L54.1997 34.5209C54.1847 31.2721 54.2298 28.9408 54.305 28.7001C54.5457 28.0985 55.1623 27.8879 56.9973 27.7676L58.6819 27.6623V26.6395V25.6017H51.2367H43.7915V26.6546Z" fill="white"/>
<path d="M85.0033 26.6244V27.6623L86.5525 27.7525C88.6431 27.8879 89.0342 27.9781 89.335 28.4293C89.5606 28.7903 89.6058 29.9033 89.681 40.5673C89.7712 53.713 89.7261 53.0963 90.8993 55.5329C92.0273 57.8793 94.3887 59.8195 97.2615 60.7821C99.5628 61.5492 101.082 61.7447 104.331 61.6545C106.662 61.6094 107.414 61.5342 108.392 61.2634C113.37 59.8947 116.048 56.3451 116.589 50.404C116.664 49.5466 116.724 44.3876 116.739 38.9579C116.739 32.7912 116.8 28.9257 116.89 28.685C117.1 28.1285 117.928 27.8427 119.627 27.7375L121.101 27.6623V26.6395V25.6017H115.16H109.219V26.6395V27.6623L110.693 27.7375C112.588 27.8277 113.265 28.1285 113.566 28.9858C113.731 29.4672 113.776 31.7082 113.791 40.5673C113.806 51.532 113.806 51.5471 113.476 52.615C112.994 54.104 112.453 55.0215 111.415 56.0744C109.791 57.6837 107.895 58.4959 105.459 58.6463C102.105 58.8419 99.2168 57.8341 97.1262 55.7435C96.0282 54.6605 95.1408 53.0211 94.9302 51.6975C94.6896 50.2536 94.7347 29.0761 94.9753 28.6098C95.2761 28.0232 95.8477 27.8427 97.8331 27.7375L99.6681 27.6322V26.6545V25.6769L92.3432 25.6317L85.0033 25.6017V26.6244Z" fill="white"/>
<path d="M122.184 26.6094L122.229 27.6322L123.357 27.7224C125.598 27.9029 126.441 28.3993 127.072 29.9786C127.253 30.4298 127.824 31.7684 128.321 32.9717C132.487 42.7783 136.262 51.9682 138.323 57.3077L139.977 61.5643L140.564 61.5191L141.151 61.474L141.737 59.8947C142.85 56.8415 146.731 47.2454 148.175 43.9515C148.521 43.1694 148.987 42.0864 149.228 41.5449C149.453 41.0035 150.16 39.3791 150.807 37.9351C151.439 36.4912 152.431 34.1449 153.018 32.7461C154.266 29.7379 154.492 29.2716 155.018 28.7302C155.695 28.0082 156.267 27.7976 157.801 27.7074L159.23 27.6322V26.6545V25.6769L153.108 25.6318L146.971 25.6017V26.6545V27.7074H148.626C150.085 27.7074 150.31 27.7375 150.581 28.0082C150.942 28.3692 150.957 28.8204 150.641 29.768C150.371 30.5501 148.265 35.8896 147.272 38.3112C146.144 41.0185 145.287 43.1092 144.941 43.9515C143.843 46.6739 141.677 51.8629 141.617 51.9081C141.587 51.9381 141.527 51.9381 141.482 51.893C141.151 51.5621 132.382 29.0761 132.382 28.5497C132.382 27.8728 132.848 27.7074 134.818 27.7074H136.593V26.6545V25.6017H129.374H122.139L122.184 26.6094Z" fill="white"/>
<path d="M39.9046 0.0808548C38.149 0.311851 36.2548 1.42063 35.3655 2.73731C34.6725 3.76524 34.4762 4.40048 34.4877 5.54391C34.5108 6.95298 34.8111 7.69217 35.7928 8.6739C36.6822 9.56323 37.8025 10.1523 40.2511 11.0301C43.716 12.2659 44.5245 12.9704 44.5129 14.726C44.5129 17.6365 41.1173 18.9648 37.9642 17.29C37.1557 16.8627 36.2433 15.9041 36.0585 15.2804C35.9776 15.0263 35.9199 14.495 35.9199 14.1023V13.3978H35.2847H34.6494V15.65V17.9022L35.4348 18.3988C36.9247 19.3575 38.2299 19.7502 39.9508 19.7502C41.9027 19.7502 43.5774 19.1034 44.9403 17.8213C46.2801 16.5624 46.8806 14.9801 46.7305 13.1899C46.615 11.8847 46.2801 11.1456 45.46 10.3255C44.6053 9.47084 43.7276 9.02039 40.6207 7.86542C37.225 6.60649 36.7284 6.21379 36.7284 4.85092C36.7399 3.32635 37.9642 1.99812 39.5812 1.77867C40.2973 1.68628 41.6717 1.89417 42.3993 2.20602C43.023 2.48321 43.82 3.2686 44.074 3.86919C44.1664 4.08863 44.2357 4.49288 44.2357 4.75852C44.2357 5.6594 44.3166 5.7749 44.8825 5.7749H45.3907V3.70749V1.64008L44.7093 1.23583C43.127 0.300301 41.406 -0.115492 39.9046 0.0808548Z" fill="white"/>
<path d="M74.681 0.103969C74.6463 0.161718 74.1728 1.3629 73.6184 2.78352C71.5279 8.24657 68.1438 16.4816 67.7049 17.1861C67.2891 17.8329 66.677 18.1332 65.7414 18.1332H65.0253V18.7107V19.2882H68.4325H71.8397V18.7107V18.1332H71.4124C70.754 18.1332 70.1303 17.9253 69.9802 17.6597C69.83 17.3825 70.1419 16.2968 70.9504 14.3218L71.447 13.109L74.6232 13.0744L77.811 13.0513L77.9495 13.3631C78.3076 14.137 79.4626 17.3594 79.4626 17.5673C79.4626 17.8329 79.0468 17.9946 78.1343 18.0754L77.1411 18.1563L77.1757 18.6876L77.2104 19.2304L80.9987 19.2651L84.7755 19.2882V18.7107V18.1332H84.1518C83.274 18.1332 82.8929 17.96 82.6157 17.4633C82.4771 17.2323 81.9458 15.9387 81.426 14.6105C80.8947 13.2707 79.3817 9.44775 78.0535 6.08676L75.6396 2.1318e-05H75.1891C74.9466 2.1318e-05 74.7156 0.0462205 74.681 0.103969ZM75.166 6.17916C75.4317 6.87215 75.9745 8.35052 76.3903 9.44775C76.8061 10.545 77.1526 11.5267 77.1526 11.6191C77.1526 11.7577 76.7368 11.7808 74.6117 11.7808C72.4634 11.7808 72.0707 11.7577 72.0707 11.6076C72.0707 11.5152 72.5673 10.083 73.1795 8.40827C73.7916 6.73355 74.346 5.22053 74.4038 5.04728C74.4731 4.86248 74.5655 4.75854 74.6117 4.81629C74.6579 4.86248 74.912 5.47462 75.166 6.17916Z" fill="white"/>
<path d="M133.054 0.519762C132.927 0.820057 132.823 1.0857 132.823 1.1088C132.823 1.2936 128.538 12.0349 127.117 15.4074C126.112 17.7867 125.766 18.1216 124.31 18.1332H123.583V18.7107V19.2882H126.99H130.397V18.7107V18.1332H129.97C129.265 18.1332 128.665 17.9138 128.538 17.625C128.399 17.3363 128.699 16.3199 129.566 14.2063L130.004 13.109H133.227H136.438L137.108 14.8415C137.951 17.036 138.112 17.625 137.928 17.8098C137.858 17.8791 137.339 17.9946 136.784 18.0639L135.768 18.1909V18.7107V19.2304L139.556 19.2651L143.333 19.2882V18.7222V18.1563L142.524 18.1101C141.878 18.0754 141.67 18.0177 141.439 17.7983C141.231 17.6019 140.769 16.5855 140.03 14.6798C139.418 13.1206 137.858 9.18211 136.576 5.94817L134.232 0.0577703L133.758 0.0231209C133.296 -0.0115285 133.273 2.1318e-05 133.054 0.519762ZM134.486 8.16573C135.156 9.95594 135.71 11.5036 135.71 11.6076C135.71 11.7577 135.387 11.7808 133.238 11.7808C131.668 11.7808 130.732 11.7346 130.686 11.6653C130.594 11.5036 133.065 4.70079 133.169 4.81629C133.215 4.86248 133.804 6.37551 134.486 8.16573Z" fill="white"/>
<path d="M18.3295 0.427364C18.2833 0.462013 18.2487 0.750758 18.2487 1.0626V1.61699H18.9763C19.8772 1.61699 20.524 1.79024 20.6741 2.07898C20.7434 2.21758 20.7896 4.97798 20.7896 9.86355V17.4287L20.524 17.7405C20.2699 18.0292 20.1659 18.0639 19.2535 18.1101L18.2487 18.1678V18.7222V19.2882H25.3518H32.4549L32.4318 16.8858L32.3972 14.495H31.9352H31.4732L31.3346 15.3266C31.1729 16.2852 30.9534 16.7819 30.5492 17.0475C30.2142 17.267 28.2277 17.4287 25.5019 17.4518L23.6193 17.4633L23.5847 13.5826L23.5616 9.70185H26.2065C29.3827 9.70185 29.3249 9.67875 29.4173 10.8915L29.4866 11.6653H30.041H30.6069V9.00886V6.35241L30.3297 6.28311C30.1796 6.24846 29.9255 6.23691 29.7869 6.26001C29.5328 6.29466 29.4982 6.37551 29.4289 7.09159C29.3827 7.57669 29.2787 7.95783 29.1632 8.07333C29.0131 8.23502 28.5742 8.25812 26.2758 8.29277L23.5616 8.32742V5.18588V2.05588L24.6357 2.12518C25.2132 2.15983 26.6107 2.21758 27.7195 2.26378C28.8283 2.29843 29.914 2.37928 30.1218 2.44858C30.5723 2.58718 30.734 2.85282 30.8264 3.62666L30.8957 4.2157L31.4501 4.25035L31.9929 4.28499V2.32153V0.346515H25.2016C21.4595 0.346515 18.3642 0.381165 18.3295 0.427364Z" fill="white"/>
<path d="M47.9316 2.58717V4.85093H48.4976H49.0751L49.1444 4.29654C49.3061 3.04917 49.3407 2.89902 49.5371 2.72577C49.8374 2.44858 50.7613 2.33308 52.8519 2.29843L54.6883 2.26378L54.7229 9.8289C54.7345 13.9868 54.7229 17.498 54.6883 17.6481C54.5843 18.087 53.8105 18.3642 52.7017 18.3642H51.7431V18.8262V19.2882H56.132H60.5209V18.8377V18.3873L59.4352 18.3411C58.2456 18.3064 57.7721 18.0985 57.6219 17.5442C57.5064 17.163 57.4949 2.33308 57.6104 2.27533C57.6566 2.25223 58.7653 2.27533 60.082 2.30998C63.1889 2.41393 63.0041 2.30998 63.2467 4.23879L63.316 4.85093H63.8819H64.4478V2.58717V0.311864L61.9993 0.415812C58.8577 0.54286 53.4062 0.54286 50.334 0.415812L47.9316 0.323414V2.58717Z" fill="white"/>
<path d="M85.4685 0.912423V1.47836L86.3694 1.55921C87.5474 1.66316 87.6514 1.69781 87.8015 2.05585C87.8824 2.26375 87.917 4.29651 87.917 8.20034C87.9055 12.7972 87.9401 14.2178 88.0787 14.8992C88.6678 18.0408 91.2549 19.7501 95.4128 19.7617C97.0876 19.7617 98 19.6 99.0626 19.1149C100.599 18.4104 101.546 17.2323 102.112 15.3612C102.366 14.5181 102.377 14.2986 102.435 8.28119L102.504 2.05585L102.77 1.84796C102.932 1.70936 103.324 1.60541 103.89 1.55921L104.757 1.47836V0.912423V0.346483H101.58H98.4042V0.912423V1.46681L99.2705 1.53611C100.241 1.61696 100.529 1.73246 100.714 2.0905C100.899 2.437 101.014 12.6817 100.853 13.9983C100.622 15.7886 99.7902 16.9551 98.2194 17.6943C97.5958 17.983 97.2608 18.0639 96.3946 18.1101C95.101 18.1794 94.2694 18.0061 93.2184 17.4864C92.3175 17.0359 91.5321 16.2737 91.047 15.3497L90.7236 14.726L90.689 8.40824C90.6543 0.958622 90.4811 1.69781 92.2136 1.55921L93.3339 1.47836L93.2992 0.947072L93.2646 0.404232L89.3723 0.369582L85.4685 0.346483V0.912423Z" fill="white"/>
<path d="M144.026 0.91242C144.026 1.51301 144.118 1.61696 144.684 1.61696C145.239 1.61696 145.885 1.8826 146.186 2.24065L146.474 2.58714L146.428 9.92126C146.405 15.7308 146.359 17.3247 146.243 17.5326C146.036 17.9022 145.423 18.1332 144.661 18.1332H144.026V18.7107V19.2881H147.375H150.725V18.7222V18.1678L149.801 18.0985C149.293 18.0523 148.773 17.9715 148.646 17.9022C148.057 17.5903 148.068 17.7405 148.091 10.6835L148.126 4.11171L151.221 8.03864C152.919 10.1869 155.726 13.7327 157.447 15.9041C160.196 19.3921 160.6 19.8656 160.877 19.8656H161.2L161.281 18.8031C161.316 18.2256 161.362 15.8232 161.362 13.467C161.374 11.1109 161.408 7.6344 161.455 5.75178C161.524 2.51784 161.535 2.30995 161.766 1.9981C161.974 1.72091 162.09 1.67471 162.69 1.65161C163.06 1.62851 163.545 1.59386 163.753 1.55921C164.111 1.48991 164.123 1.47836 164.123 0.92397V0.346481H160.6H157.077V0.970169V1.59386L158.117 1.64006C159.006 1.67471 159.191 1.70936 159.41 1.94035L159.676 2.206L159.711 7.98089C159.734 11.596 159.699 13.7327 159.63 13.698C159.572 13.6634 157.146 10.6373 154.247 6.98761L148.981 0.346481H146.498H144.026V0.91242Z" fill="white"/>
<path d="M164.816 2.58718V4.85093H165.381H165.936L166.017 4.06555C166.167 2.42548 166.167 2.42548 169.204 2.30998C170.44 2.27533 171.491 2.25223 171.549 2.27533C171.653 2.33308 171.641 17.163 171.526 17.5442C171.376 18.0985 170.925 18.2949 169.666 18.3411L168.511 18.3873V18.8377V19.2882L172.935 19.2651L177.347 19.2304V18.8262V18.4219L176.25 18.3526C175.106 18.2833 174.714 18.1563 174.517 17.7867C174.448 17.6481 174.402 14.9108 174.402 9.89819V2.21758L175.36 2.26378C175.88 2.28688 176.954 2.33308 177.751 2.35618C178.56 2.37928 179.334 2.46013 179.507 2.54098C179.842 2.70267 179.911 2.91057 180.05 4.15795L180.119 4.79319L180.673 4.82784L181.216 4.86248V2.58718V0.323416L178.768 0.415814C175.615 0.542862 170.279 0.542862 167.218 0.415814L164.816 0.323416V2.58718Z" fill="white"/>
<path d="M181.909 0.970204V1.59389L182.81 1.62854C183.422 1.66319 183.815 1.74404 184.023 1.88264L184.335 2.07898V9.8751V17.6712L184.034 17.856C183.85 17.9831 183.411 18.0754 182.822 18.1101L181.909 18.1678V18.7222V19.2882H188.955H196V16.8512V14.4257L195.515 14.4604L195.018 14.495L194.937 15.2804C194.834 16.1351 194.51 16.8974 194.152 17.0937C193.84 17.2554 191.473 17.4287 189.128 17.4402L187.164 17.4633L187.13 13.5826L187.107 9.70185H189.752C192.928 9.70185 192.905 9.6903 192.997 10.8799L193.055 11.6076L193.609 11.6422L194.152 11.6769V9.02041V6.35241L193.863 6.28311C193.702 6.24846 193.448 6.24846 193.286 6.28311C193.02 6.35241 192.997 6.41016 192.997 7.03385C192.997 7.53049 192.939 7.78458 192.778 7.98093C192.558 8.25812 192.535 8.25812 189.832 8.29277L187.107 8.32742V5.19743V2.06743L188.758 2.14828C194.348 2.40238 193.806 2.34463 194.106 2.69112C194.268 2.88747 194.395 3.22241 194.441 3.63821L194.522 4.27345H195.088H195.654L195.63 2.33308L195.596 0.404264L188.758 0.369615L181.909 0.346515V0.970204Z" fill="white"/>
<path d="M0.0923984 0.531312C0.0346494 0.577511 0 0.866256 0 1.155V1.69784L0.981732 1.75559C2.58715 1.83644 2.42546 0.947104 2.42546 9.86355C2.41391 15.9387 2.39081 17.5326 2.26376 17.6943C2.09051 17.9253 1.31668 18.1216 0.55439 18.1332H0V18.7107V19.2882H3.86918H7.73836V18.7222C7.73836 18.1909 7.72681 18.1563 7.38032 18.087C7.18397 18.0523 6.72198 18.0177 6.36394 18.0177C5.20896 18.0177 5.27826 18.2487 5.27826 14.0215L5.26671 10.3371L6.45633 10.3024L7.64596 10.2678L8.07331 10.7182C8.3043 10.9608 9.34378 12.6124 10.3833 14.3911C12.52 18.0292 13.1783 19.0225 13.5941 19.1842C13.7443 19.242 14.726 19.2882 15.777 19.2882H17.6712V18.7107V18.1332H17.0821C16.4816 18.1332 16.1004 17.9946 15.8463 17.6828C15.7077 17.498 13.9753 14.9224 12.0349 11.9772C11.3881 10.9839 10.9377 10.4064 10.672 10.2562C10.4526 10.1292 10.2793 9.99059 10.2793 9.94439C10.2793 9.90974 10.6027 9.72495 10.9954 9.5517C13.4555 8.48912 14.7606 6.20226 14.16 3.9847C13.7905 2.56408 12.8896 1.58234 11.5036 1.07415C10.2216 0.600611 9.75958 0.554411 4.90866 0.496662C2.30996 0.462013 0.138598 0.473563 0.0923984 0.531312ZM8.2581 2.07898C9.67873 2.28688 10.6027 2.86437 11.1225 3.8692C11.4574 4.52754 11.5267 6.00591 11.261 6.82595C10.6374 8.70857 9.48238 9.30916 6.64113 9.21676L5.37065 9.18211L5.31291 5.89042C5.27826 4.0771 5.30136 2.50633 5.34755 2.39083C5.4053 2.27533 5.55545 2.13673 5.69405 2.07898C6.04054 1.94039 7.27637 1.94039 8.2581 2.07898Z" fill="#D6B766"/>
<path d="M105.45 1.07416V1.70939L106.362 1.74404C107.91 1.82489 107.76 0.947107 107.76 9.8751C107.76 15.9849 107.725 17.5557 107.609 17.7174C107.448 17.9369 106.72 18.1216 105.946 18.1332H105.45V18.7107V19.2882H109.261H113.072V18.7222C113.072 18.0639 113.003 18.0177 111.79 18.0177C110.532 18.0177 110.601 18.2833 110.601 14.0215V10.3371L111.767 10.3024C112.865 10.2678 112.945 10.2909 113.28 10.5565C113.65 10.8684 113.685 10.9377 116.052 14.957C117.912 18.1216 118.443 18.907 118.859 19.1265C119.101 19.242 119.667 19.2882 121.1 19.2882H123.005V18.7107V18.1332H122.382C121.377 18.1332 121.608 18.4104 117.646 12.3814C116.838 11.1456 116.283 10.4179 116.018 10.2447C115.798 10.1061 115.613 9.9675 115.613 9.93285C115.613 9.8982 116.041 9.67875 116.572 9.42465C117.739 8.87026 118.813 7.85388 119.286 6.84905C119.552 6.26001 119.598 6.04057 119.598 5.08193C119.598 4.1233 119.552 3.8923 119.275 3.29172C118.628 1.91729 117.646 1.21275 115.671 0.727661C115.14 0.600614 113.858 0.542865 110.22 0.496665L105.45 0.438917V1.07416ZM113.592 2.07899C115.255 2.32153 116.341 3.14157 116.664 4.43514C116.849 5.18588 116.745 6.62961 116.457 7.28794C116.156 7.95783 115.498 8.62772 114.816 8.92801C114.355 9.13591 114.054 9.17056 112.495 9.18211H110.705L110.647 5.89042C110.612 4.0771 110.635 2.50633 110.682 2.39083C110.739 2.27533 110.89 2.13674 111.028 2.07899C111.375 1.94039 112.61 1.94039 113.592 2.07899Z" fill="white"/>
</svg>
